<?xml version="1.0" encoding="UTF-8" standalone="no"?>
<svg width="22px" height="22px" viewBox="0 0 22 22" version="1.1" xmlns="http://www.w3.org/2000/svg" xmlns:xlink="http://www.w3.org/1999/xlink" xmlns:sketch="http://www.bohemiancoding.com/sketch/ns">
    <!-- Generator: Sketch 3.4.4 (17249) - http://www.bohemiancoding.com/sketch -->
    <title>addcontact_btn</title>
    <desc>Created with Sketch.</desc>
    <defs></defs>
    <g id="Page-1" stroke="none" stroke-width="1" fill="none" fill-rule="evenodd" sketch:type="MSPage">
        <g id="addcontact_btn" sketch:type="MSArtboardGroup" fill="#4A4A4A">
            <path d="M8,13 C10.206,13 12,11.206 12,9 C12,6.794 10.206,5 8,5 C5.794,5 4,6.794 4,9 C4,11.206 5.794,13 8,13 Z M8,14 C3.29,14 0,16.467 0,20 L0,21 L16,21 L16,20 C16,16.467 12.71,14 8,14 Z M22,4 L19,4 L19,1 L17,1 L17,4 L14,4 L14,6 L17,6 L17,9 L19,9 L19,6 L22,6 L22,4 Z" sketch:type="MSShapeGroup"></path>
        </g>
    </g>
</svg>