<?xml version="1.0" encoding="UTF-8" standalone="no"?>
<svg width="19px" height="19px" viewBox="0 0 19 19" version="1.1" xmlns="http://www.w3.org/2000/svg" xmlns:xlink="http://www.w3.org/1999/xlink" xmlns:sketch="http://www.bohemiancoding.com/sketch/ns">
    <!-- Generator: Sketch 3.4.4 (17249) - http://www.bohemiancoding.com/sketch -->
    <title>address_icn</title>
    <desc>Created with Sketch.</desc>
    <defs></defs>
    <g id="Page-1" stroke="none" stroke-width="1" fill="none" fill-rule="evenodd" sketch:type="MSPage">
        <g id="address_icn" sketch:type="MSArtboardGroup" fill="#4A4A4A">
            <path d="M16.625,8.6 L13.4583333,8.6 L13.4583333,4.86666667 L16.625,4.86666667 L16.625,8.6 Z M9.5,9.53333333 L2.375,9.53333333 L2.375,7.66666667 L9.5,7.66666667 L9.5,9.53333333 Z M9.5,13.2666667 L2.375,13.2666667 L2.375,11.4 L9.5,11.4 L9.5,13.2666667 Z M17.4166667,3 L1.58333333,3 C0.709333333,3 0,3.8372 0,4.86666667 L0,15.1333333 C0,16.1637333 0.709333333,17 1.58333333,17 L17.4166667,17 C18.2906667,17 19,16.1637333 19,15.1333333 L19,4.86666667 C19,3.8372 18.2906667,3 17.4166667,3 L17.4166667,3 Z" sketch:type="MSShapeGroup"></path>
        </g>
    </g>
</svg>