<?xml version="1.0" encoding="UTF-8" standalone="no"?>
<svg width="26px" height="26px" viewBox="0 0 26 26" version="1.1" xmlns="http://www.w3.org/2000/svg" xmlns:xlink="http://www.w3.org/1999/xlink" xmlns:sketch="http://www.bohemiancoding.com/sketch/ns">
    <!-- Generator: Sketch 3.4.4 (17249) - http://www.bohemiancoding.com/sketch -->
    <title>billingoff_btn</title>
    <desc>Created with Sketch.</desc>
    <defs></defs>
    <g id="Page-1" stroke="none" stroke-width="1" fill="none" fill-rule="evenodd" sketch:type="MSPage">
        <g id="billingoff_btn" sketch:type="MSArtboardGroup" fill="#FDB2A1">
            <path d="M21.1666667,19.5 L5.83333333,19.5 L5.83333333,16.9 L21.1666667,16.9 L21.1666667,19.5 L21.1666667,19.5 Z M21.1666667,14.3 L5.83333333,14.3 L5.83333333,11.7 L21.1666667,11.7 L21.1666667,14.3 L21.1666667,14.3 Z M21.1666667,9.1 L5.83333333,9.1 L5.83333333,6.5 L21.1666667,6.5 L21.1666667,9.1 L21.1666667,9.1 Z M2,26 L3.91666667,24.05 L5.83333333,26 L7.75,24.05 L9.66666667,26 L11.5833333,24.05 L13.5,26 L15.4166667,24.05 L17.3333333,26 L19.25,24.05 L21.1666667,26 L23.0833333,24.05 L25,26 L25,0 L23.0833333,1.95 L21.1666667,0 L19.25,1.95 L17.3333333,0 L15.4166667,1.95 L13.5,0 L11.5833333,1.95 L9.66666667,0 L7.75,1.95 L5.83333333,0 L3.91666667,1.95 L2,0 L2,26 L2,26 Z" sketch:type="MSShapeGroup"></path>
        </g>
    </g>
</svg>