<?xml version="1.0" encoding="UTF-8" standalone="no"?>
<svg width="18px" height="18px" viewBox="0 0 18 18" version="1.1" xmlns="http://www.w3.org/2000/svg" xmlns:xlink="http://www.w3.org/1999/xlink" xmlns:sketch="http://www.bohemiancoding.com/sketch/ns">
    <!-- Generator: Sketch 3.4.4 (17249) - http://www.bohemiancoding.com/sketch -->
    <title>call_icn</title>
    <desc>Created with Sketch.</desc>
    <defs></defs>
    <g id="Page-1" stroke="none" stroke-width="1" fill="none" fill-rule="evenodd" sketch:type="MSPage">
        <g id="call_icn" sketch:type="MSArtboardGroup" fill="#4A4A4A">
            <path d="M3.62,7.79 C5.06,10.62 7.38,12.93 10.21,14.38 L12.41,12.18 C12.68,11.91 13.08,11.82 13.43,11.94 C14.55,12.31 15.76,12.51 17,12.51 C17.55,12.51 18,12.96 18,13.51 L18,17 C18,17.55 17.55,18 17,18 C7.61,18 0,10.39 0,1 C0,0.45 0.45,0 1,0 L4.5,0 C5.05,0 5.5,0.45 5.5,1 C5.5,2.25 5.7,3.45 6.07,4.57 C6.18,4.92 6.1,5.31 5.82,5.59 L3.62,7.79 L3.62,7.79 Z" id="Shape" sketch:type="MSShapeGroup"></path>
        </g>
    </g>
</svg>