<?xml version="1.0" encoding="UTF-8" standalone="no"?>
<svg width="28px" height="28px" viewBox="0 0 28 28" version="1.1" xmlns="http://www.w3.org/2000/svg" xmlns:xlink="http://www.w3.org/1999/xlink" xmlns:sketch="http://www.bohemiancoding.com/sketch/ns">
    <!-- Generator: Sketch 3.4.4 (17249) - http://www.bohemiancoding.com/sketch -->
    <title>call_btn</title>
    <desc>Created with Sketch.</desc>
    <defs></defs>
    <g id="Page-1" stroke="none" stroke-width="1" fill="none" fill-rule="evenodd" sketch:type="MSPage">
        <g id="call_btn" sketch:type="MSArtboardGroup" fill="#FDB2A1">
            <path d="M14,22.5 C12.625,22.5 11.5,23.625 11.5,25 C11.5,26.375 12.625,27.5 14,27.5 C15.375,27.5 16.5,26.375 16.5,25 C16.5,23.625 15.375,22.5 14,22.5 L14,22.5 Z M6.5,0 C5.125,0 4,1.125 4,2.5 C4,3.875 5.125,5 6.5,5 C7.875,5 9,3.875 9,2.5 C9,1.125 7.875,0 6.5,0 L6.5,0 Z M6.5,7.5 C5.125,7.5 4,8.625 4,10 C4,11.375 5.125,12.5 6.5,12.5 C7.875,12.5 9,11.375 9,10 C9,8.625 7.875,7.5 6.5,7.5 L6.5,7.5 Z M6.5,15 C5.125,15 4,16.125 4,17.5 C4,18.875 5.125,20 6.5,20 C7.875,20 9,18.875 9,17.5 C9,16.125 7.875,15 6.5,15 L6.5,15 Z M21.5,5 C22.875,5 24,3.875 24,2.5 C24,1.125 22.875,0 21.5,0 C20.125,0 19,1.125 19,2.5 C19,3.875 20.125,5 21.5,5 L21.5,5 Z M14,15 C12.625,15 11.5,16.125 11.5,17.5 C11.5,18.875 12.625,20 14,20 C15.375,20 16.5,18.875 16.5,17.5 C16.5,16.125 15.375,15 14,15 L14,15 Z M21.5,15 C20.125,15 19,16.125 19,17.5 C19,18.875 20.125,20 21.5,20 C22.875,20 24,18.875 24,17.5 C24,16.125 22.875,15 21.5,15 L21.5,15 Z M21.5,7.5 C20.125,7.5 19,8.625 19,10 C19,11.375 20.125,12.5 21.5,12.5 C22.875,12.5 24,11.375 24,10 C24,8.625 22.875,7.5 21.5,7.5 L21.5,7.5 Z M14,7.5 C12.625,7.5 11.5,8.625 11.5,10 C11.5,11.375 12.625,12.5 14,12.5 C15.375,12.5 16.5,11.375 16.5,10 C16.5,8.625 15.375,7.5 14,7.5 L14,7.5 Z M14,0 C12.625,0 11.5,1.125 11.5,2.5 C11.5,3.875 12.625,5 14,5 C15.375,5 16.5,3.875 16.5,2.5 C16.5,1.125 15.375,0 14,0 L14,0 Z" id="Shape" sketch:type="MSShapeGroup"></path>
        </g>
    </g>
</svg>