<?xml version="1.0" encoding="UTF-8" standalone="no"?>
<svg width="21px" height="21px" viewBox="0 0 21 21" version="1.1" xmlns="http://www.w3.org/2000/svg" xmlns:xlink="http://www.w3.org/1999/xlink" xmlns:sketch="http://www.bohemiancoding.com/sketch/ns">
    <!-- Generator: Sketch 3.4.4 (17249) - http://www.bohemiancoding.com/sketch -->
    <title>email_icon</title>
    <desc>Created with Sketch.</desc>
    <defs></defs>
    <g id="Page-1" stroke="none" stroke-width="1" fill="none" fill-rule="evenodd" sketch:type="MSPage">
        <g id="email_icon" sketch:type="MSArtboardGroup" fill="#4A4A4A">
            <path d="M10.5,12.6 C9.343,12.6 8.401,11.658 8.401,10.5 C8.401,9.343 9.343,8.4 10.5,8.4 C11.658,8.4 12.6,9.343 12.6,10.5 C12.6,11.658 11.658,12.6 10.5,12.6 M10.5,0 C4.711,0 0,4.71 0,10.5 C0,16.29 4.711,21 10.5,21 C12.641,21 14.693,20.368 16.436,19.171 L14.738,16.698 C13.498,17.55 12.032,18 10.5,18 C6.365,18 3,14.636 3,10.5 C3,6.365 6.365,3 10.5,3 C14.636,3 18,6.365 18,10.5 L18,11.283 C18,11.924 17.857,13 16.9,13 L16.501,13 C16.209,12.989 15.62,12.418 15.601,12.131 L15.601,10.5 L15.6,10.5 C15.6,7.687 13.312,5.4 10.5,5.4 C7.688,5.4 5.401,7.687 5.401,10.5 C5.401,13.312 7.688,15.6 10.5,15.6 C11.671,15.6 12.739,15.186 13.601,14.52 C14.353,15.387 15.426,16 16.5,16 L16.9,16 C19.314,16 21,14.06 21,11.283 L21,10.5 C21,4.71 16.29,0 10.5,0" id="Fill-55" sketch:type="MSShapeGroup"></path>
        </g>
    </g>
</svg>