<?xml version="1.0" encoding="UTF-8" standalone="no"?>
<svg width="11px" height="11px" viewBox="0 0 11 11" version="1.1" xmlns="http://www.w3.org/2000/svg" xmlns:xlink="http://www.w3.org/1999/xlink" xmlns:sketch="http://www.bohemiancoding.com/sketch/ns">
    <!-- Generator: Sketch 3.4.4 (17249) - http://www.bohemiancoding.com/sketch -->
    <title>exitcall_icn</title>
    <desc>Created with Sketch.</desc>
    <defs></defs>
    <g id="Page-1" stroke="none" stroke-width="1" fill="none" fill-rule="evenodd" sketch:type="MSPage">
        <g id="exitcall_icn" sketch:type="MSArtboardGroup" fill="#757575">
            <path d="M6.11111111,0 L6.11111111,1.22222222 L8.91366667,1.22222222 L5.06794444,5.06794444 L5.93205556,5.93205556 L9.77777778,2.08633333 L9.77777778,4.88888889 L11,4.88888889 L11,0 L6.11111111,0 Z M9.77777778,7.33333333 L7.33333333,7.33333333 C6.99538889,7.33333333 6.72222222,7.6065 6.72222222,7.94444444 L6.72222222,8.55555556 C4.27777778,8.55555556 2.48233333,6.68433333 2.44444444,4.27777778 L3.05555556,4.27777778 C3.3935,4.27777778 3.66666667,4.00461111 3.66666667,3.66666667 L3.66666667,1.22222222 C3.66666667,0.884277778 3.3935,0.611111111 3.05555556,0.611111111 L0.611111111,0.611111111 C0.273166667,0.611111111 0,0.884277778 0,1.22222222 L0,4.27777778 C0,7.99027778 3.00972222,11 6.72222222,11 L9.77777778,11 C10.1157222,11 10.3888889,10.7268333 10.3888889,10.3888889 L10.3888889,7.94444444 C10.3888889,7.6065 10.1157222,7.33333333 9.77777778,7.33333333 Z" id="Fill-128" sketch:type="MSShapeGroup"></path>
        </g>
    </g>
</svg>