<?xml version="1.0" encoding="UTF-8" standalone="no"?>
<svg width="24px" height="24px" viewBox="0 0 24 24" version="1.1" xmlns="http://www.w3.org/2000/svg" xmlns:xlink="http://www.w3.org/1999/xlink" xmlns:sketch="http://www.bohemiancoding.com/sketch/ns">
    <!-- Generator: Sketch 3.4.4 (17249) - http://www.bohemiancoding.com/sketch -->
    <title>history_btn</title>
    <desc>Created with Sketch.</desc>
    <defs></defs>
    <g id="Page-1" stroke="none" stroke-width="1" fill="none" fill-rule="evenodd" sketch:type="MSPage">
        <g id="history_btn" sketch:type="MSArtboardGroup" fill="#FDB2A1">
            <g id="clock" sketch:type="MSLayerGroup">
                <path d="M11.988,0 C5.364,0 0,5.376 0,12 C0,18.624 5.364,24 11.988,24 C18.624,24 24,18.624 24,12 C24,5.376 18.624,0 11.988,0 L11.988,0 Z M12,21.6 C6.696,21.6 2.4,17.304 2.4,12 C2.4,6.696 6.696,2.4 12,2.4 C17.304,2.4 21.6,6.696 21.6,12 C21.6,17.304 17.304,21.6 12,21.6 L12,21.6 Z" id="Shape" sketch:type="MSShapeGroup"></path>
                <path d="M12.6,6 L10.8,6 L10.8,13.2 L17.1,16.98 L18,15.504 L12.6,12.3 L12.6,6 Z" id="Shape" sketch:type="MSShapeGroup"></path>
            </g>
        </g>
    </g>
</svg>