<?xml version="1.0" encoding="UTF-8" standalone="no"?>
<svg width="20px" height="20px" viewBox="0 0 20 20" version="1.1" xmlns="http://www.w3.org/2000/svg" xmlns:xlink="http://www.w3.org/1999/xlink" xmlns:sketch="http://www.bohemiancoding.com/sketch/ns">
    <!-- Generator: Sketch 3.4.4 (17249) - http://www.bohemiancoding.com/sketch -->
    <title>lockpass_icn</title>
    <desc>Created with Sketch.</desc>
    <defs></defs>
    <g id="Page-1" stroke="none" stroke-width="1" fill="none" fill-rule="evenodd" sketch:type="MSPage">
        <g id="lockpass_icn" sketch:type="MSArtboardGroup" fill="#4A4A4A">
            <path d="M13,9 L7,9 L7,5 C7,3.346 8.346,2 10,2 C11.654,2 13,3.346 13,5 L13,9 Z M10,16 C9.172,16 8.5,15.328 8.5,14.5 C8.5,13.672 9.172,13 10,13 C10.828,13 11.5,13.672 11.5,14.5 C11.5,15.328 10.828,16 10,16 L10,16 Z M15,9 L15,5 C15,2.243 12.757,0 10,0 C7.243,0 5,2.243 5,5 L5,9 C3.897,9 3,9.896 3,11 L3,18 C3,19.103 3.897,20 5,20 L15,20 C16.103,20 17,19.103 17,18 L17,11 C17,9.896 16.103,9 15,9 L15,9 Z" id="Fill-185" sketch:type="MSShapeGroup"></path>
        </g>
    </g>
</svg>