<?xml version="1.0" encoding="UTF-8" standalone="no"?>
<svg width="24px" height="24px" viewBox="0 0 24 24" version="1.1" xmlns="http://www.w3.org/2000/svg" xmlns:xlink="http://www.w3.org/1999/xlink" xmlns:sketch="http://www.bohemiancoding.com/sketch/ns">
    <!-- Generator: Sketch 3.4.4 (17249) - http://www.bohemiancoding.com/sketch -->
    <title>notifications_btn</title>
    <desc>Created with Sketch.</desc>
    <defs></defs>
    <g id="Page-1" stroke="none" stroke-width="1" fill="none" fill-rule="evenodd" sketch:type="MSPage">
        <g id="notifications_btn" sketch:type="MSArtboardGroup" fill="#FDB2A1">
            <path d="M9.78888889,21.1222222 C9.78888889,22.3444444 10.7777778,23.3333333 12,23.3333333 C13.2222222,23.3333333 14.2111111,22.3444444 14.2111111,21.1222222 L9.78888889,21.1222222 L9.78888889,21.1222222 Z M19.6444444,16.4666667 L19.6444444,10 C19.6444444,6.38888889 17.1444444,3.36666667 13.7666667,2.56666667 L13.7666667,1.76666667 C13.7666667,0.788888889 12.9777778,0 12,0 C11.0222222,0 10.2333333,0.788888889 10.2333333,1.76666667 L10.2333333,2.56666667 C6.85555556,3.36666667 4.35555556,6.38888889 4.35555556,10 L4.35555556,16.4666667 L2,18.8222222 L2,20 L22,20 L22,18.8222222 L19.6444444,16.4666667 L19.6444444,16.4666667 Z" id="Shape" sketch:type="MSShapeGroup"></path>
        </g>
    </g>
</svg>