<?xml version="1.0" encoding="UTF-8" standalone="no"?>
<svg width="20px" height="20px" viewBox="0 0 20 20" version="1.1" xmlns="http://www.w3.org/2000/svg" xmlns:xlink="http://www.w3.org/1999/xlink" xmlns:sketch="http://www.bohemiancoding.com/sketch/ns">
    <!-- Generator: Sketch 3.4.4 (17249) - http://www.bohemiancoding.com/sketch -->
    <title>pdf_btn</title>
    <desc>Created with Sketch.</desc>
    <defs></defs>
    <g id="Page-1" stroke="none" stroke-width="1" fill="none" fill-rule="evenodd" sketch:type="MSPage">
        <g id="pdf_btn" sketch:type="MSArtboardGroup" fill="#FFFFFF">
            <path d="M12,0 L4,0 C2.9,0 2.01,0.9 2.01,2 L2,18 C2,19.1 2.89,20 3.99,20 L16,20 C17.1,20 18,19.1 18,18 L18,6 L12,0 L12,0 Z M14,16 L6,16 L6,14 L14,14 L14,16 L14,16 Z M14,12 L6,12 L6,10 L14,10 L14,12 L14,12 Z M11,7 L11,1.5 L16.5,7 L11,7 L11,7 Z" id="Shape" sketch:type="MSShapeGroup"></path>
        </g>
    </g>
</svg>