<?xml version="1.0" encoding="UTF-8" standalone="no"?>
<svg width="18px" height="18px" viewBox="0 0 18 18" version="1.1" xmlns="http://www.w3.org/2000/svg" xmlns:xlink="http://www.w3.org/1999/xlink" xmlns:sketch="http://www.bohemiancoding.com/sketch/ns">
    <!-- Generator: Sketch 3.4.4 (17249) - http://www.bohemiancoding.com/sketch -->
    <title>search_btn</title>
    <desc>Created with Sketch.</desc>
    <defs></defs>
    <g id="Page-1" stroke="none" stroke-width="1" fill="none" fill-rule="evenodd" sketch:type="MSPage">
        <g id="search_btn" sketch:type="MSArtboardGroup" fill="#FFFFFF">
            <path d="M10.9012767,11.2832224 C9.74350246,12.3490953 8.1977647,13 6.5,13 C2.91014913,13 0,10.0898509 0,6.5 C0,2.91014913 2.91014913,0 6.5,0 C10.0898509,0 13,2.91014913 13,6.5 C13,8.07445717 12.4402113,9.51816869 11.508806,10.6429624 C11.672547,10.6371691 11.8115968,10.6411445 11.8115968,10.6411445 C12.0720042,10.6378962 12.4618485,10.7976349 12.6578674,10.9936538 L17.3573869,15.6931734 C17.5562525,15.892039 17.5525363,16.2078713 17.3554448,16.4049628 L16.6549628,17.1054448 C16.4494427,17.310965 16.1391923,17.3034059 15.9431734,17.1073869 L11.2436538,12.4078674 C11.0447882,12.2090018 10.8922967,11.8366702 10.8966962,11.5698832 C10.8966962,11.5698832 10.8945454,11.4408614 10.9012767,11.2832224 Z M6.5,11 C8.98528137,11 11,8.98528137 11,6.5 C11,4.01471863 8.98528137,2 6.5,2 C4.01471863,2 2,4.01471863 2,6.5 C2,8.98528137 4.01471863,11 6.5,11 Z" sketch:type="MSShapeGroup"></path>
        </g>
    </g>
</svg>