<?xml version="1.0" encoding="UTF-8" standalone="no"?>
<svg width="18px" height="18px" viewBox="0 0 18 18" version="1.1" xmlns="http://www.w3.org/2000/svg" xmlns:xlink="http://www.w3.org/1999/xlink" xmlns:sketch="http://www.bohemiancoding.com/sketch/ns">
    <!-- Generator: Sketch 3.4.4 (17249) - http://www.bohemiancoding.com/sketch -->
    <title>server_icn</title>
    <desc>Created with Sketch.</desc>
    <defs></defs>
    <g id="Page-1" stroke="none" stroke-width="1" fill="none" fill-rule="evenodd" sketch:type="MSPage">
        <g id="server_icn" sketch:type="MSArtboardGroup" fill="#4A4A4A">
            <path d="M17,10 L1,10 C0.45,10 0,10.45 0,11 L0,17 C0,17.55 0.45,18 1,18 L17,18 C17.55,18 18,17.55 18,17 L18,11 C18,10.45 17.55,10 17,10 L17,10 Z M4,16 C2.9,16 2,15.1 2,14 C2,12.9 2.9,12 4,12 C5.1,12 6,12.9 6,14 C6,15.1 5.1,16 4,16 L4,16 Z M1,0 C0.45,0 0,0.45 0,1 L0,7 C0,7.55 0.45,8 1,8 L17,8 C17.55,8 18,7.55 18,7 L18,1 C18,0.45 17.55,0 17,0 L1,0 Z M4,6 C2.9,6 2,5.1 2,4 C2,2.9 2.9,2 4,2 C5.1,2 6,2.9 6,4 C6,5.1 5.1,6 4,6 L4,6 Z" id="Shape" sketch:type="MSShapeGroup"></path>
        </g>
    </g>
</svg>