<?xml version="1.0" encoding="UTF-8" standalone="no"?>
<svg width="26px" height="26px" viewBox="0 0 26 26" version="1.1" xmlns="http://www.w3.org/2000/svg" xmlns:xlink="http://www.w3.org/1999/xlink" xmlns:sketch="http://www.bohemiancoding.com/sketch/ns">
    <!-- Generator: Sketch 3.4.4 (17249) - http://www.bohemiancoding.com/sketch -->
    <title>users_btn</title>
    <desc>Created with Sketch.</desc>
    <defs></defs>
    <g id="Page-1" stroke="none" stroke-width="1" fill="none" fill-rule="evenodd" sketch:type="MSPage">
        <g id="users_btn" sketch:type="MSArtboardGroup" fill="#FDB2A1">
            <path d="M22.4444444,2.6 L17.1033333,2.6 C16.5666667,1.092 15.1611111,0 13.5,0 C11.8388889,0 10.4333333,1.092 9.89666667,2.6 L4.55555556,2.6 C3.15,2.6 2,3.77 2,5.2 L2,23.4 C2,24.83 3.15,26 4.55555556,26 L22.4444444,26 C23.85,26 25,24.83 25,23.4 L25,5.2 C25,3.77 23.85,2.6 22.4444444,2.6 L22.4444444,2.6 Z M13.5,2.6 C14.2027778,2.6 14.7777778,3.185 14.7777778,3.9 C14.7777778,4.615 14.2027778,5.2 13.5,5.2 C12.7972222,5.2 12.2222222,4.615 12.2222222,3.9 C12.2222222,3.185 12.7972222,2.6 13.5,2.6 L13.5,2.6 Z M13.5,7.8 C15.6211111,7.8 17.3333333,9.542 17.3333333,11.7 C17.3333333,13.858 15.6211111,15.6 13.5,15.6 C11.3788889,15.6 9.66666667,13.858 9.66666667,11.7 C9.66666667,9.542 11.3788889,7.8 13.5,7.8 L13.5,7.8 Z M21.1666667,23.4 L5.83333333,23.4 L5.83333333,21.58 C5.83333333,18.98 10.9444444,17.55 13.5,17.55 C16.0555556,17.55 21.1666667,18.98 21.1666667,21.58 L21.1666667,23.4 L21.1666667,23.4 Z" id="usersoff_btn" sketch:type="MSShapeGroup"></path>
        </g>
    </g>
</svg>