<?xml version="1.0" encoding="UTF-8" standalone="no"?>
<!-- Created with Inkscape (http://www.inkscape.org/) -->

<svg
   xmlns:dc="http://purl.org/dc/elements/1.1/"
   xmlns:cc="http://creativecommons.org/ns#"
   xmlns:rdf="http://www.w3.org/1999/02/22-rdf-syntax-ns#"
   xmlns:svg="http://www.w3.org/2000/svg"
   xmlns="http://www.w3.org/2000/svg"
   xmlns:sodipodi="http://sodipodi.sourceforge.net/DTD/sodipodi-0.dtd"
   xmlns:inkscape="http://www.inkscape.org/namespaces/inkscape"
   version="1.1"
   id="svg2"
   width="24.771128"
   height="27.491121"
   viewBox="0 0 24.771127 27.491121"
   sodipodi:docname="wifi_logo_small2.svg"
   inkscape:version="0.92.1 r15371">
  <metadata
     id="metadata8">
    <rdf:RDF>
      <cc:Work
         rdf:about="">
        <dc:format>image/svg+xml</dc:format>
        <dc:type
           rdf:resource="http://purl.org/dc/dcmitype/StillImage" />
        <dc:title></dc:title>
      </cc:Work>
    </rdf:RDF>
  </metadata>
  <defs
     id="defs6" />
  <sodipodi:namedview
     pagecolor="#ffffff"
     bordercolor="#666666"
     borderopacity="1"
     objecttolerance="10"
     gridtolerance="10"
     guidetolerance="10"
     inkscape:pageopacity="0"
     inkscape:pageshadow="2"
     inkscape:window-width="838"
     inkscape:window-height="480"
     id="namedview4"
     showgrid="false"
     fit-margin-top="0"
     fit-margin-left="0"
     fit-margin-right="0"
     fit-margin-bottom="0"
     inkscape:zoom="4.9166667"
     inkscape:cx="12.36103"
     inkscape:cy="13.948949"
     inkscape:window-x="86"
     inkscape:window-y="0"
     inkscape:window-maximized="0"
     inkscape:current-layer="svg2" />
  <path
     style="fill:#ffffff;fill-opacity:1;stroke-width:0.80000001"
     d="m 1.7637652,23.21834 c -0.466332,-2.350029 -0.7905115,-4.27278 -0.7203989,-4.27278 0.070113,0 1.9251269,-0.9 4.1222539,-2 4.641271,-2.323669 7.6991778,-6.9862386 7.8876288,-12.0267306 0.129301,-3.45839 0.312605,-3.604558 5.494916,-4.3816932 L 22.130046,0 l 0.814336,4.1185374 0.814337,4.118538 -3.535227,1.661751 c -1.944373,0.9139626 -4.383461,2.7833726 -5.420195,4.1542436 -2.043584,2.702227 -3.985325,8.819016 -3.336382,10.510135 0.47656,1.241894 -0.468133,1.670186 -5.2733938,2.390779 l -3.58188,0.537136 z M 12.31785,24.695939 c -0.729368,-1.900703 1.120922,-7.470662 3.369326,-10.142738 2.018472,-2.398817 5.748189,-4.8076406 7.44394,-4.8076406 1.886888,0 0.656086,2.1912326 -1.921114,3.4202146 -3.408612,1.625453 -5.42285,4.586275 -5.999164,8.818447 -0.450135,3.305576 -2.079157,4.832525 -2.892988,2.711717 z m 3.652994,-1.429476 c 0,-3.962318 3.230923,-8.221725 7.399999,-9.755602 2.345273,-0.862867 1.559784,0.910984 -0.986458,2.227697 -2.548439,1.317848 -4.813541,4.878771 -4.813541,7.567274 0,0.901851 -0.36,1.639728 -0.800001,1.639728 -0.439999,0 -0.799999,-0.755594 -0.799999,-1.679097 z M 0.7708438,16.69373 c 0,-0.578507 1.2624644,-1.653857 2.8054754,-2.389668 3.359049,-1.601819 5.98742,-5.5987656 5.991534,-9.1112886 0.0032,-2.732922 1.2434258,-4.126778 2.5284948,-2.841709 1.12026,1.12026 0.0016,6.169283 -2.037165,9.1945946 -2.9073568,4.314227 -9.2883392,7.850893 -9.2883392,5.148071 z M 0.0016599,13.94556 c 0.016949,-0.33 1.1869488,-1.32 2.6000003,-2.2 1.82216,-1.134779 2.918099,-2.7036776 3.769184,-5.3957996 1.420901,-4.494551 2.816985,-5.077749 2.022926,-0.845056 -0.670343,3.573239 -1.996323,5.5841486 -4.978874,7.5506956 -2.3968795,1.580384 -3.4629661,1.858415 -3.4132363,0.89016 z"
     id="path4487"
     inkscape:connector-curvature="0" />
</svg>
